<svg viewBox="0 0 1200 470" width="1200" height="470" xmlns="http://www.w3.org/2000/svg" role="img" aria-label="你好，我是 daha。— daha 的个人主页">
<style>
.sans{font-family:-apple-system,BlinkMacSystemFont,'Segoe UI','PingFang SC','Hiragino Sans GB','Microsoft YaHei',sans-serif}
.mono{font-family:ui-monospace,'SF Mono','Cascadia Mono','Cascadia Code',Consolas,'Courier New',monospace}
</style>
<text x="600" y="92" class="mono" font-size="13" letter-spacing="5" fill="#6E6E73" text-anchor="middle">GITHUB · @DAHA1216</text>
<text x="600" y="210" class="sans" font-size="96" font-weight="700" letter-spacing="1" fill="#1D1D1F" text-anchor="middle">你好，我是 daha。</text>
<text x="600" y="256" class="sans" font-size="21" fill="#6E6E73" text-anchor="middle">我为 AI Agent 造工具，也造会自己运转的世界。</text>
<rect x="402" y="302" width="252" height="42" rx="21" fill="#0071E3"/>
<text x="528" y="329" class="sans" font-size="15" fill="#FFFFFF" text-anchor="middle">代表作 · dsh-adult-tension</text>
<rect x="670" y="302.5" width="128" height="41" rx="20.5" fill="none" stroke="#86868B" stroke-width="1"/>
<text x="734" y="329" class="sans" font-size="15" fill="#1D1D1F" text-anchor="middle">全部作品 ›</text>
<rect x="330" y="384" width="44" height="44" rx="14.0" fill="#FF375F"/>
<text x="352.0" y="413.2" class="sans" font-size="20" font-weight="600" fill="#FFFFFF" text-anchor="middle">剧</text>
<rect x="392" y="384" width="44" height="44" rx="14.0" fill="#007AFF"/>
<text x="414.0" y="413.2" class="sans" font-size="20" font-weight="600" fill="#FFFFFF" text-anchor="middle">目</text>
<rect x="454" y="384" width="44" height="44" rx="14.0" fill="#34C759"/>
<text x="476.0" y="413.2" class="sans" font-size="20" font-weight="600" fill="#FFFFFF" text-anchor="middle">袋</text>
<rect x="516" y="384" width="44" height="44" rx="14.0" fill="#5856D6"/>
<text x="538.0" y="413.2" class="sans" font-size="20" font-weight="600" fill="#FFFFFF" text-anchor="middle">观</text>
<rect x="578" y="384" width="44" height="44" rx="14.0" fill="#30B0C7"/>
<text x="600.0" y="413.2" class="sans" font-size="20" font-weight="600" fill="#FFFFFF" text-anchor="middle">溯</text>
<rect x="640" y="384" width="44" height="44" rx="14.0" fill="#AF52DE"/>
<text x="662.0" y="413.2" class="sans" font-size="20" font-weight="600" fill="#FFFFFF" text-anchor="middle">忆</text>
<rect x="702" y="384" width="44" height="44" rx="14.0" fill="#FF9500"/>
<text x="724.0" y="413.2" class="sans" font-size="20" font-weight="600" fill="#FFFFFF" text-anchor="middle">阅</text>
<rect x="764" y="384" width="44" height="44" rx="14.0" fill="#FF2D55"/>
<text x="786.0" y="413.2" class="sans" font-size="20" font-weight="600" fill="#FFFFFF" text-anchor="middle">字</text>
<rect x="826" y="384" width="44" height="44" rx="14.0" fill="#8E8E93"/>
<text x="848.0" y="413.2" class="sans" font-size="20" font-weight="600" fill="#FFFFFF" text-anchor="middle">规</text>
</svg>
