<svg viewBox="0 0 560 320" width="560" height="320" xmlns="http://www.w3.org/2000/svg" role="img" aria-label="billion-context-dsh — ACP 上下文修剪">
<style>
.sans{font-family:-apple-system,BlinkMacSystemFont,'Segoe UI','PingFang SC','Hiragino Sans GB','Microsoft YaHei',sans-serif}
.mono{font-family:ui-monospace,'SF Mono','Cascadia Mono','Cascadia Code',Consolas,'Courier New',monospace}
</style>
<rect width="560" height="320" fill="#161B22"/>
<defs><clipPath id="clip5dark"><rect x="10" y="10" width="540" height="300" rx="28"/></clipPath></defs>
<rect x="10" y="10" width="540" height="300" rx="28" fill="#21262D"/>
<text x="38" y="68" class="mono" font-size="24" font-weight="600" fill="#F5F5F7">billion-context-dsh</text>
<text x="38" y="98" class="sans" font-size="15" fill="#8B949E">ACP 上下文修剪</text>
<text x="38" y="130" class="sans" font-size="14" font-weight="500" fill="#2997FF">了解更多 ›</text>
<g clip-path="url(#clip5dark)">
<path d="M 240 180 h -12 a 12 12 0 0 0 -12 12 v 56 a 12 12 0 0 0 12 12 h 12" fill="none" stroke="#5E5CE6" stroke-width="3" stroke-linecap="round"/>
<path d="M 320 180 h 12 a 12 12 0 0 1 12 12 v 56 a 12 12 0 0 1 -12 12 h -12" fill="none" stroke="#5E5CE6" stroke-width="3" stroke-linecap="round"/>
<rect x="252" y="212" width="56" height="24" rx="12" fill="#0A84FF"/>
</g>
</svg>
